<svg width="24" height="24" viewBox="0 0 24 24" fill="none" xmlns="http://www.w3.org/2000/svg">
<path d="M12 2.25C11.5312 2.25 11.0654 2.4082 10.6641 2.69531L9.42188 3.5625L7.99219 3.75H7.96875L7.94531 3.77344C6.99023 3.9873 6.2373 4.74023 6.02344 5.69531L6 5.71875V5.74219L5.8125 7.19531L4.94531 8.32031L4.92188 8.34375V8.36719C4.39746 9.20508 4.37402 10.2861 4.94531 11.0859L5.83594 12.3281L6.07031 13.6172L3.65625 17.2969L2.88281 18.4453H6.46875L7.33594 20.4609L7.875 21.75L8.64844 20.5781L11.0156 17.0156C11.6514 17.2764 12.3691 17.2998 12.9844 17.0156L15.3516 20.5781L16.125 21.75L16.6641 20.4609L17.5312 18.4453H21.1172L20.3438 17.2969L18 13.7344L18.1875 12.3281L19.0547 11.0859L19.0781 11.0625V11.0391C19.6025 10.2012 19.626 9.14355 19.0547 8.34375L18.1875 7.10156L17.9062 5.69531H17.9297C17.9268 5.67773 17.9092 5.66602 17.9062 5.64844C17.7715 4.66699 16.9951 3.87012 16.0078 3.75H15.9844L14.5781 3.5625L13.3359 2.69531C12.9346 2.4082 12.4688 2.25 12 2.25ZM12 3.77344C12.1729 3.77344 12.3428 3.82617 12.4688 3.91406L13.8047 4.875L13.9688 4.99219L14.1562 5.01562L15.7969 5.25H15.8203C16.1572 5.28809 16.3916 5.52246 16.4297 5.85938V5.90625L16.7344 7.57031L16.7578 7.73438L16.875 7.875L17.8359 9.21094C18.0146 9.45996 18.0381 9.88184 17.8125 10.2422L16.7578 11.7188L16.7344 11.9062L16.5 13.5469V13.5703C16.4854 13.6934 16.4443 13.8076 16.3828 13.8984L16.3359 13.9219V13.9453C16.2275 14.0742 16.0781 14.1592 15.8906 14.1797H15.8438L14.1328 14.4844L13.9453 14.5078L13.8047 14.625L12.4688 15.5859C12.2197 15.7646 11.7744 15.7881 11.4141 15.5625L10.1953 14.625L10.0547 14.5078L9.84375 14.4844L8.20312 14.25H8.17969C7.94824 14.2236 7.76953 14.1035 7.66406 13.9219C7.61719 13.8398 7.58203 13.7432 7.57031 13.6406V13.5938L7.26562 11.8828L7.24219 11.6953L7.125 11.5547L6.16406 10.2188C5.98535 9.96973 5.96191 9.52441 6.1875 9.16406L7.125 7.94531L7.24219 7.80469L7.26562 7.59375L7.47656 6.02344C7.47949 6.01172 7.49707 6.01172 7.5 6C7.59375 5.63379 7.88379 5.34375 8.25 5.25C8.26172 5.24707 8.26172 5.22949 8.27344 5.22656L9.84375 5.01562L10.0312 4.99219L10.1953 4.875L11.5312 3.91406C11.6572 3.82617 11.8271 3.77344 12 3.77344ZM17.1797 15.1875L18.3281 16.9453H16.5234L16.3359 17.4141L15.8203 18.6094L14.2266 16.1719L14.5781 15.9141L16.0547 15.6562V15.6797C16.0723 15.6768 16.084 15.6592 16.1016 15.6562C16.5059 15.6006 16.8721 15.4307 17.1797 15.1875ZM6.82031 15.2109C7.13965 15.498 7.54688 15.6973 7.99219 15.75C8.00098 15.75 8.00684 15.75 8.01562 15.75L9.44531 15.9375L9.77344 16.1953L8.17969 18.6094L7.66406 17.4141L7.47656 16.9453H5.67188L6.82031 15.2109Z" fill="url(#paint0_linear_183_48)"/>
<defs>
<linearGradient id="paint0_linear_183_48" x1="-9.88125" y1="2.25" x2="-9.88125" y2="21.75" gradientUnits="userSpaceOnUse">
<stop stop-color="#83A2C0"/>
<stop offset="1" stop-color="#2C5680"/>
</linearGradient>
</defs>
</svg>
