<svg width="24" height="24" viewBox="0 0 24 24" fill="none" xmlns="http://www.w3.org/2000/svg">
<path d="M6.2 16.5C7.09277 16.5 7.96179 16.6042 8.80707 16.8125C9.65236 17.0208 10.4833 17.3333 11.3 17.75V7.075C10.55 6.575 9.73651 6.1875 8.85953 5.9125C7.98256 5.6375 7.09605 5.5 6.2 5.5C5.56667 5.5 4.94583 5.57917 4.3375 5.7375C3.72917 5.89583 3.11667 6.09167 2.5 6.325V17.175C3.01667 16.9417 3.60417 16.7708 4.2625 16.6625C4.92083 16.5542 5.56667 16.5 6.2 16.5ZM12.8 17.75C13.6333 17.3333 14.45 17.0208 15.25 16.8125C16.05 16.6042 16.9 16.5 17.8 16.5C18.4333 16.5 19.0875 16.55 19.7625 16.65C20.4375 16.75 21.0167 16.8833 21.5 17.05V6.325C20.9333 6.04167 20.3348 5.83333 19.7044 5.7C19.0741 5.56667 18.4393 5.5 17.8 5.5C16.9 5.5 16.0292 5.6375 15.1875 5.9125C14.3458 6.1875 13.55 6.575 12.8 7.075V17.75ZM12.05 19.725C11.9244 19.725 11.8055 19.7125 11.6933 19.6875C11.5811 19.6625 11.4833 19.6167 11.4 19.55C10.6167 19.0667 9.78461 18.6917 8.90383 18.425C8.02303 18.1583 7.12175 18.025 6.2 18.025C5.59105 18.025 4.99298 18.1 4.4058 18.25C3.8186 18.4 3.23333 18.5833 2.65 18.8C2.265 18.9833 1.89375 18.9583 1.53625 18.725C1.17875 18.4917 1 18.1583 1 17.725V6.15C1 5.9 1.05833 5.67083 1.175 5.4625C1.29167 5.25417 1.46667 5.09167 1.7 4.975C2.4 4.64167 3.12829 4.39583 3.88488 4.2375C4.64144 4.07917 5.41315 4 6.2 4C7.25 4 8.27083 4.14167 9.2625 4.425C10.2542 4.70833 11.1833 5.14167 12.05 5.725C12.9 5.14167 13.8125 4.70833 14.7875 4.425C15.7625 4.14167 16.7667 4 17.8 4C18.5811 4 19.3473 4.07917 20.0984 4.2375C20.8495 4.39583 21.575 4.64167 22.275 4.975C22.5083 5.09167 22.6875 5.25417 22.8125 5.4625C22.9375 5.67083 23 5.9 23 6.15V17.725C23 18.1899 22.8125 18.5436 22.4375 18.7862C22.0625 19.0287 21.6917 19.0333 21.325 18.8C20.7583 18.5667 20.1814 18.3792 19.5942 18.2375C19.007 18.0958 18.409 18.025 17.8 18.025C16.8954 18.025 16.0109 18.1583 15.1466 18.425C14.2822 18.6917 13.4667 19.0667 12.7 19.55C12.6167 19.6167 12.5189 19.6625 12.4067 19.6875C12.2945 19.7125 12.1756 19.725 12.05 19.725ZM14 8.8C14 8.70807 14.0335 8.61358 14.1006 8.51653C14.1677 8.41949 14.2425 8.35565 14.325 8.325C14.825 8.14167 15.3361 8 15.8584 7.9C16.3807 7.8 16.9299 7.75 17.5062 7.75C17.8664 7.75 18.2221 7.77083 18.5733 7.8125C18.9244 7.85417 19.2667 7.91667 19.6 8C19.7 8.03333 19.7917 8.09496 19.875 8.18488C19.9583 8.27481 20 8.37597 20 8.48837C20 8.67946 19.9375 8.825 19.8125 8.925C19.6875 9.025 19.5333 9.05 19.35 9C19.07 8.91667 18.775 8.85417 18.465 8.8125C18.155 8.77083 17.8333 8.75 17.5 8.75C17.0167 8.75 16.55 8.79583 16.1 8.8875C15.65 8.97917 15.2083 9.11667 14.775 9.3C14.5417 9.38333 14.3542 9.37917 14.2125 9.2875C14.0708 9.19583 14 9.03333 14 8.8ZM14 14.3C14 14.2032 14.0335 14.1038 14.1006 14.0016C14.1677 13.8995 14.2425 13.8323 14.325 13.8C14.825 13.6167 15.3361 13.4792 15.8584 13.3875C16.3807 13.2958 16.9299 13.25 17.5062 13.25C17.8664 13.25 18.2221 13.2708 18.5733 13.3125C18.9244 13.3542 19.2667 13.4167 19.6 13.5C19.7 13.5333 19.7917 13.595 19.875 13.6849C19.9583 13.7748 20 13.876 20 13.9884C20 14.1795 19.9375 14.325 19.8125 14.425C19.6875 14.525 19.5333 14.55 19.35 14.5C19.07 14.4167 18.775 14.3542 18.465 14.3125C18.155 14.2708 17.8333 14.25 17.5 14.25C17.0167 14.25 16.55 14.2917 16.1 14.375C15.65 14.4583 15.2083 14.5917 14.775 14.775C14.5417 14.8583 14.3542 14.8583 14.2125 14.775C14.0708 14.6917 14 14.5333 14 14.3ZM14 11.55C14 11.4581 14.0335 11.3636 14.1006 11.2665C14.1677 11.1695 14.2425 11.1057 14.325 11.075C14.825 10.8917 15.3361 10.75 15.8584 10.65C16.3807 10.55 16.9299 10.5 17.5062 10.5C17.8664 10.5 18.2221 10.5208 18.5733 10.5625C18.9244 10.6042 19.2667 10.6667 19.6 10.75C19.7 10.7833 19.7917 10.845 19.875 10.9349C19.9583 11.0248 20 11.126 20 11.2384C20 11.4295 19.9375 11.575 19.8125 11.675C19.6875 11.775 19.5333 11.8 19.35 11.75C19.07 11.6667 18.775 11.6042 18.465 11.5625C18.155 11.5208 17.8333 11.5 17.5 11.5C17.0167 11.5 16.55 11.5458 16.1 11.6375C15.65 11.7292 15.2083 11.8667 14.775 12.05C14.5417 12.1333 14.3542 12.1292 14.2125 12.0375C14.0708 11.9458 14 11.7833 14 11.55Z" fill="url(#paint0_linear_139_29)"/>
<defs>
<linearGradient id="paint0_linear_139_29" x1="-14.4" y1="4" x2="-14.4" y2="19.725" gradientUnits="userSpaceOnUse">
<stop stop-color="#83A2C0"/>
<stop offset="1" stop-color="#2C5680"/>
</linearGradient>
</defs>
</svg>
