<svg width="24" height="24" viewBox="0 0 24 24" fill="none" xmlns="http://www.w3.org/2000/svg">
<path d="M15.1 18.85L14.15 21.375C14.0667 21.5583 13.9458 21.7083 13.7875 21.825C13.6292 21.9417 13.45 22 13.25 22C12.9167 22 12.6583 21.8625 12.475 21.5875C12.2917 21.3125 12.2583 21.0167 12.375 20.7L16.175 10.625C16.2583 10.4417 16.375 10.2917 16.525 10.175C16.675 10.0583 16.85 10 17.05 10H17.8C18 10 18.175 10.0542 18.325 10.1625C18.475 10.2708 18.5917 10.4167 18.675 10.6L22.575 20.675C22.7083 21.0083 22.675 21.3125 22.475 21.5875C22.275 21.8625 22.0083 22 21.675 22C21.4417 22 21.2417 21.9333 21.075 21.8C20.9083 21.6667 20.7833 21.4917 20.7 21.275L19.9 18.85H15.1ZM15.65 17.1H19.2L17.45 12.25H17.4L15.65 17.1ZM9 14L4.675 18.325C4.49167 18.5083 4.26667 18.5958 4 18.5875C3.73333 18.5792 3.50833 18.4833 3.325 18.3C3.14167 18.1167 3.05 17.8875 3.05 17.6125C3.05 17.3375 3.14167 17.1083 3.325 16.925L7.725 12.525C7.09167 11.7917 6.52917 11.0542 6.0375 10.3125C5.54583 9.57083 5.11667 8.8 4.75 8H6.925C7.20833 8.55 7.52083 9.07083 7.8625 9.5625C8.20417 10.0542 8.59167 10.5583 9.025 11.075C9.775 10.2917 10.4 9.47917 10.9 8.6375C11.4 7.79583 11.825 6.91667 12.175 6H2C1.71667 6 1.47917 5.90417 1.2875 5.7125C1.09583 5.52083 1 5.28333 1 5C1 4.71667 1.09583 4.47917 1.2875 4.2875C1.47917 4.09583 1.71667 4 2 4H8V3C8 2.71667 8.09583 2.47917 8.2875 2.2875C8.47917 2.09583 8.71667 2 9 2C9.28333 2 9.52083 2.09583 9.7125 2.2875C9.90417 2.47917 10 2.71667 10 3V4H16C16.2833 4 16.5208 4.09583 16.7125 4.2875C16.9042 4.47917 17 4.71667 17 5C17 5.28333 16.9042 5.52083 16.7125 5.7125C16.5208 5.90417 16.2833 6 16 6H14.175C13.8083 7.15 13.3208 8.27917 12.7125 9.3875C12.1042 10.4958 11.3583 11.55 10.475 12.55L12.925 15.025L12.175 17.05L9 14Z" fill="url(#paint0_linear_139_31)"/>
<defs>
<linearGradient id="paint0_linear_139_31" x1="-14.1585" y1="2" x2="-14.1585" y2="22" gradientUnits="userSpaceOnUse">
<stop stop-color="#83A2C0"/>
<stop offset="1" stop-color="#2C5680"/>
</linearGradient>
</defs>
</svg>
