<svg width="452" height="46" viewBox="0 0 452 46" fill="none" xmlns="http://www.w3.org/2000/svg">
<path d="M37.5887 10.82L59.1888 24.18V28.7L43.6087 38.38L40.7488 34.08L53.7488 26.44L34.7887 15.36L37.5887 10.82ZM16.4287 14.5L19.1887 18.86L6.20875 26.44L24.3088 37.08L21.4688 41.58L0.748749 28.7V24.22L16.4287 14.5ZM22.8687 45.94L17.9288 43.68L35.9287 6.31999L40.8288 8.57999L22.8687 45.94Z" fill="#141414"/>
<path d="M82.6571 4.91999C84.7371 4.91999 86.5771 5.22399 88.1771 5.83199C89.8091 6.43999 91.3451 7.35199 92.7851 8.56799L89.0411 13.032C88.0491 12.264 87.0731 11.688 86.1131 11.304C85.1531 10.92 84.1291 10.728 83.0411 10.728C80.8011 10.728 79.0251 11.672 77.7131 13.56C76.4331 15.448 75.7931 18.36 75.7931 22.296C75.7931 26.168 76.4331 29.048 77.7131 30.936C79.0251 32.792 80.8331 33.72 83.1371 33.72C84.3531 33.72 85.4571 33.496 86.4491 33.048C87.4411 32.568 88.5131 31.896 89.6651 31.032L93.1691 35.544C91.9211 36.792 90.4011 37.816 88.6091 38.616C86.8491 39.416 84.8971 39.816 82.7531 39.816C79.6811 39.816 77.0091 39.144 74.7371 37.8C72.4651 36.456 70.6891 34.472 69.4091 31.848C68.1611 29.192 67.5371 26.008 67.5371 22.296C67.5371 18.68 68.1771 15.56 69.4571 12.936C70.7691 10.312 72.5611 8.32799 74.8331 6.98399C77.1371 5.60799 79.7451 4.91999 82.6571 4.91999Z" fill="#141414"/>
<path d="M109.8 12.792C110.728 12.792 111.576 12.904 112.344 13.128L111.144 20.472C110.184 20.248 109.416 20.136 108.84 20.136C107.336 20.136 106.184 20.664 105.384 21.72C104.616 22.744 104.008 24.296 103.56 26.376V39H95.976V13.512H102.6L103.224 18.456C103.8 16.696 104.664 15.32 105.816 14.328C107 13.304 108.328 12.792 109.8 12.792Z" fill="#141414"/>
<path d="M122.826 13.512V39H115.242V13.512H122.826ZM118.986 0.071991C120.298 0.071991 121.37 0.487991 122.202 1.31999C123.066 2.11999 123.498 3.14399 123.498 4.39199C123.498 5.63999 123.066 6.67999 122.202 7.51199C121.37 8.31199 120.298 8.71199 118.986 8.71199C117.674 8.71199 116.602 8.31199 115.77 7.51199C114.938 6.67999 114.522 5.63999 114.522 4.39199C114.522 3.14399 114.938 2.11999 115.77 1.31999C116.602 0.487991 117.674 0.071991 118.986 0.071991Z" fill="#141414"/>
<path d="M137.764 12.696C139.588 12.696 141.3 12.968 142.9 13.512C144.5 14.056 145.908 14.824 147.124 15.816L144.34 20.088C142.26 18.776 140.165 18.12 138.053 18.12C137.061 18.12 136.293 18.296 135.749 18.648C135.237 18.968 134.98 19.432 134.98 20.04C134.98 20.52 135.092 20.92 135.316 21.24C135.572 21.528 136.069 21.832 136.805 22.152C137.541 22.472 138.676 22.856 140.212 23.304C142.868 24.072 144.837 25.08 146.117 26.328C147.429 27.544 148.085 29.24 148.085 31.416C148.085 33.144 147.588 34.648 146.596 35.928C145.604 37.176 144.244 38.136 142.516 38.808C140.788 39.48 138.868 39.816 136.757 39.816C134.613 39.816 132.613 39.48 130.757 38.808C128.933 38.136 127.381 37.208 126.101 36.024L129.797 31.896C131.941 33.56 134.196 34.392 136.564 34.392C137.716 34.392 138.613 34.184 139.253 33.768C139.925 33.352 140.26 32.76 140.26 31.992C140.26 31.384 140.132 30.904 139.876 30.552C139.62 30.2 139.125 29.88 138.389 29.592C137.653 29.272 136.485 28.888 134.885 28.44C132.357 27.704 130.469 26.68 129.221 25.368C127.973 24.056 127.349 22.424 127.349 20.472C127.349 19 127.765 17.688 128.597 16.536C129.461 15.352 130.677 14.424 132.245 13.752C133.845 13.048 135.684 12.696 137.764 12.696Z" fill="#141414"/>
<path d="M167.976 37.8C167.048 38.44 165.96 38.936 164.712 39.288C163.496 39.64 162.28 39.816 161.064 39.816C155.496 39.784 152.712 36.712 152.712 30.6V18.792H149.112V13.512H152.712V7.99199L160.296 7.12799V13.512H166.152L165.336 18.792H160.296V30.504C160.296 31.688 160.488 32.536 160.872 33.048C161.256 33.56 161.864 33.816 162.696 33.816C163.56 33.816 164.472 33.544 165.432 33L167.976 37.8Z" fill="#141414"/>
<path d="M185.435 12.696C187.643 12.696 189.371 13.368 190.619 14.712C191.867 16.056 192.491 17.944 192.491 20.376V39H184.907V21.672C184.907 20.392 184.699 19.512 184.283 19.032C183.867 18.52 183.275 18.264 182.507 18.264C180.971 18.264 179.499 19.352 178.091 21.528V39H170.507V3.38399L178.091 2.61599V16.248C179.147 15.064 180.267 14.184 181.451 13.608C182.635 13 183.963 12.696 185.435 12.696Z" fill="#141414"/>
<path d="M205.794 13.512V39H198.21V13.512H205.794ZM201.954 0.071991C203.266 0.071991 204.338 0.487991 205.17 1.31999C206.034 2.11999 206.466 3.14399 206.466 4.39199C206.466 5.63999 206.034 6.67999 205.17 7.51199C204.338 8.31199 203.266 8.71199 201.954 8.71199C200.642 8.71199 199.57 8.31199 198.738 7.51199C197.906 6.67999 197.49 5.63999 197.49 4.39199C197.49 3.14399 197.906 2.11999 198.738 1.31999C199.57 0.487991 200.642 0.071991 201.954 0.071991Z" fill="#141414"/>
<path d="M232.013 31.608C232.013 32.568 232.141 33.272 232.397 33.72C232.685 34.168 233.133 34.504 233.741 34.728L232.157 39.672C230.589 39.544 229.309 39.208 228.317 38.664C227.325 38.088 226.557 37.192 226.013 35.976C224.349 38.536 221.789 39.816 218.333 39.816C215.805 39.816 213.789 39.08 212.285 37.608C210.781 36.136 210.029 34.216 210.029 31.848C210.029 29.064 211.053 26.936 213.101 25.464C215.149 23.992 218.109 23.256 221.981 23.256H224.573V22.152C224.573 20.648 224.253 19.624 223.613 19.08C222.973 18.504 221.853 18.216 220.253 18.216C219.421 18.216 218.413 18.344 217.229 18.6C216.045 18.824 214.829 19.144 213.581 19.56L211.853 14.568C213.453 13.96 215.085 13.496 216.749 13.176C218.445 12.856 220.013 12.696 221.453 12.696C225.101 12.696 227.773 13.448 229.469 14.952C231.165 16.456 232.013 18.712 232.013 21.72V31.608ZM220.541 34.392C222.269 34.392 223.613 33.576 224.573 31.944V27.432H222.701C220.973 27.432 219.677 27.736 218.813 28.344C217.981 28.952 217.565 29.896 217.565 31.176C217.565 32.2 217.821 33 218.333 33.576C218.877 34.12 219.613 34.392 220.541 34.392Z" fill="#141414"/>
<path d="M252.982 12.696C255.19 12.696 256.918 13.368 258.166 14.712C259.414 16.056 260.038 17.944 260.038 20.376V39H252.454V21.672C252.454 20.392 252.246 19.512 251.83 19.032C251.446 18.52 250.854 18.264 250.054 18.264C248.518 18.264 247.046 19.368 245.638 21.576V39H238.054V13.512H244.678L245.206 16.536C246.294 15.256 247.462 14.296 248.71 13.656C249.99 13.016 251.414 12.696 252.982 12.696Z" fill="#141414"/>
<path d="M294.812 39L293.084 31.848H283.388L281.708 39H273.548L283.58 5.73599H293.132L303.164 39H294.812ZM284.732 26.136H291.74L288.236 11.448L284.732 26.136Z" fill="#141414"/>
<path d="M312.228 39.816C310.02 39.816 308.292 39.192 307.044 37.944C305.828 36.664 305.22 34.856 305.22 32.52V3.38399L312.804 2.56799V32.232C312.804 33.288 313.236 33.816 314.1 33.816C314.548 33.816 314.964 33.736 315.348 33.576L316.836 38.952C315.46 39.528 313.924 39.816 312.228 39.816Z" fill="#141414"/>
<path d="M347.886 12.696C349.902 12.696 351.518 13.384 352.734 14.76C353.95 16.104 354.558 17.976 354.558 20.376V39H346.974V21.672C346.974 19.4 346.254 18.264 344.814 18.264C344.014 18.264 343.31 18.536 342.702 19.08C342.094 19.624 341.502 20.456 340.926 21.576V39H333.342V21.672C333.342 19.4 332.622 18.264 331.182 18.264C330.414 18.264 329.71 18.552 329.07 19.128C328.462 19.672 327.87 20.488 327.294 21.576V39H319.71V13.512H326.334L326.862 16.488C327.854 15.208 328.942 14.264 330.126 13.656C331.342 13.016 332.718 12.696 334.254 12.696C335.694 12.696 336.926 13.048 337.95 13.752C339.006 14.456 339.774 15.448 340.254 16.728C341.278 15.352 342.398 14.344 343.614 13.704C344.862 13.032 346.286 12.696 347.886 12.696Z" fill="#141414"/>
<path d="M382.481 25.752C382.481 26.808 382.433 27.72 382.337 28.488H366.545C366.801 30.632 367.409 32.136 368.369 33C369.329 33.864 370.657 34.296 372.353 34.296C373.377 34.296 374.369 34.12 375.329 33.768C376.289 33.384 377.329 32.808 378.449 32.04L381.569 36.264C378.593 38.632 375.281 39.816 371.633 39.816C367.505 39.816 364.337 38.6 362.129 36.168C359.921 33.736 358.817 30.472 358.817 26.376C358.817 23.784 359.281 21.464 360.209 19.416C361.137 17.336 362.497 15.704 364.289 14.52C366.081 13.304 368.225 12.696 370.721 12.696C374.401 12.696 377.281 13.848 379.361 16.152C381.441 18.456 382.481 21.656 382.481 25.752ZM375.041 23.592C374.977 19.688 373.601 17.736 370.913 17.736C369.601 17.736 368.577 18.216 367.841 19.176C367.137 20.136 366.705 21.72 366.545 23.928H375.041V23.592Z" fill="#141414"/>
<path d="M394.326 13.512V39H386.742V13.512H394.326ZM390.486 0.071991C391.798 0.071991 392.87 0.487991 393.702 1.31999C394.566 2.11999 394.998 3.14399 394.998 4.39199C394.998 5.63999 394.566 6.67999 393.702 7.51199C392.87 8.31199 391.798 8.71199 390.486 8.71199C389.174 8.71199 388.102 8.31199 387.27 7.51199C386.438 6.67999 386.022 5.63999 386.022 4.39199C386.022 3.14399 386.438 2.11999 387.27 1.31999C388.102 0.487991 389.174 0.071991 390.486 0.071991Z" fill="#141414"/>
<path d="M423.137 3.38399V39H416.417L416.033 36.024C414.241 38.552 411.825 39.816 408.785 39.816C405.617 39.816 403.2 38.6 401.536 36.168C399.904 33.736 399.089 30.408 399.089 26.184C399.089 23.592 399.52 21.272 400.384 19.224C401.248 17.176 402.465 15.576 404.033 14.424C405.633 13.272 407.456 12.696 409.504 12.696C411.936 12.696 413.952 13.496 415.552 15.096V2.56799L423.137 3.38399ZM411.137 34.248C412.897 34.248 414.368 33.288 415.552 31.368V20.376C414.944 19.64 414.321 19.096 413.681 18.744C413.073 18.392 412.369 18.216 411.569 18.216C410.161 18.216 409.04 18.872 408.208 20.184C407.376 21.496 406.961 23.512 406.961 26.232C406.961 29.208 407.313 31.288 408.017 32.472C408.753 33.656 409.793 34.248 411.137 34.248Z" fill="#141414"/>
<path d="M449.326 31.608C449.326 32.568 449.454 33.272 449.71 33.72C449.998 34.168 450.446 34.504 451.054 34.728L449.47 39.672C447.902 39.544 446.622 39.208 445.63 38.664C444.638 38.088 443.87 37.192 443.326 35.976C441.662 38.536 439.102 39.816 435.646 39.816C433.118 39.816 431.102 39.08 429.598 37.608C428.094 36.136 427.342 34.216 427.342 31.848C427.342 29.064 428.366 26.936 430.414 25.464C432.462 23.992 435.422 23.256 439.294 23.256H441.886V22.152C441.886 20.648 441.566 19.624 440.926 19.08C440.286 18.504 439.166 18.216 437.566 18.216C436.734 18.216 435.726 18.344 434.542 18.6C433.358 18.824 432.142 19.144 430.894 19.56L429.166 14.568C430.766 13.96 432.398 13.496 434.062 13.176C435.758 12.856 437.326 12.696 438.766 12.696C442.414 12.696 445.086 13.448 446.782 14.952C448.478 16.456 449.326 18.712 449.326 21.72V31.608ZM437.854 34.392C439.582 34.392 440.926 33.576 441.886 31.944V27.432H440.014C438.286 27.432 436.99 27.736 436.126 28.344C435.294 28.952 434.878 29.896 434.878 31.176C434.878 32.2 435.134 33 435.646 33.576C436.19 34.12 436.926 34.392 437.854 34.392Z" fill="#141414"/>
</svg>
